<?xml version="1.0" encoding="UTF-8"?>
<svg version="1.1" xmlns="http://www.w3.org/2000/svg" width="512" height="512">
<path d="M0 0 C0.80308594 -0.01546875 1.60617188 -0.0309375 2.43359375 -0.046875 C9.3199558 -0.00223084 14.36461958 1.95839959 19.70703125 6.2890625 C20.23683594 6.89492187 20.76664063 7.50078125 21.3125 8.125 C21.85519531 8.71539062 22.39789063 9.30578125 22.95703125 9.9140625 C31.0174894 23.42298224 27.5 39.51501581 27.5 54.5 C89.54 54.5 151.58 54.5 215.5 54.5 C215.5 42.62 215.5 30.74 215.5 18.5 C219.97037898 9.55924203 222.40649218 5.63875181 230.69921875 1.3671875 C234.59725969 0.16026269 238.2537771 0.13170309 242.3125 0.125 C243.46588867 0.08826172 243.46588867 0.08826172 244.64257812 0.05078125 C251.76885196 0.01469885 256.82519782 2.25073453 262.25 6.8125 C267.67442973 13.29167995 269.65553443 19.0376841 269.59765625 27.44921875 C269.59553383 28.60814384 269.59553383 28.60814384 269.59336853 29.79048157 C269.58777466 32.25619389 269.57522333 34.72181515 269.5625 37.1875 C269.55748421 38.86002473 269.55292144 40.53255088 269.54882812 42.20507812 C269.53780724 46.30342046 269.52054684 50.40169479 269.5 54.5 C270.59968613 54.48667633 270.59968613 54.48667633 271.72158813 54.4730835 C278.6926237 54.39232516 285.66349229 54.33172875 292.63486671 54.29275131 C296.21739581 54.27203758 299.79953256 54.24402506 303.38183594 54.19824219 C306.85080084 54.15419453 310.31939282 54.13074168 313.78861618 54.12049103 C315.7303474 54.10970127 317.67193239 54.07857404 319.61343384 54.04681396 C335.23540332 54.04294596 348.21647568 58.55986552 359.75 69.1875 C371.26444874 81.41125769 373.95979656 94.73204247 373.88095093 110.90966797 C373.88441204 112.46209987 373.88917964 114.01452931 373.89513266 115.56695366 C373.90761009 119.81211334 373.90148718 124.05706965 373.89217401 128.30222988 C373.88537047 132.88853238 373.89587121 137.47480056 373.90411377 142.06109619 C373.91743938 151.03744203 373.91457858 160.01371252 373.90587585 168.99006128 C373.8990951 176.28665439 373.89818428 183.58322642 373.9014473 190.87982178 C373.901907 191.91911548 373.90236669 192.95840917 373.90284032 194.02919662 C373.90379952 196.14063597 373.90477216 198.25207532 373.9057581 200.36351466 C373.91430856 220.15303013 373.90448325 239.94250388 373.888357 259.73201251 C373.87495414 276.7048261 373.87728233 293.67757814 373.89111328 310.65039062 C373.90717516 330.37007981 373.91348462 350.08973245 373.90427649 369.80942726 C373.90332086 371.91301091 373.90237775 374.01659456 373.9014473 376.12017822 C373.90098447 377.15512668 373.90052164 378.19007515 373.90004479 379.25638568 C373.89745673 386.54249441 373.90182194 393.82857992 373.90888596 401.11468506 C373.91730789 409.99647281 373.91500619 418.87818104 373.89904372 427.7599597 C373.89117038 432.2898086 373.88805345 436.819525 373.89799118 441.34937286 C373.90695797 445.49947151 373.90197267 449.64931536 373.88605852 453.79939103 C373.88271911 455.29723874 373.88438583 456.79510816 373.89168589 458.29294181 C373.95893799 473.24358214 370.63951504 486.5460006 360.2578125 497.87890625 C350.21730352 507.13848675 338.67851935 512.74513349 324.9530201 512.75447559 C323.87492737 512.75928531 323.87492737 512.75928531 322.77505499 512.76419219 C320.37812173 512.77246217 317.98144031 512.76657854 315.58450317 512.76069641 C313.84405824 512.76371846 312.10361463 512.76760822 310.36317337 512.77228898 C305.58906721 512.78257073 300.81503615 512.78038669 296.04092383 512.77610838 C290.88880589 512.7736415 285.73670604 512.78265486 280.58459473 512.79014587 C270.49438843 512.80289586 260.40420873 512.80468619 250.31399573 512.80234561 C242.11251427 512.80056265 233.91104089 512.80231162 225.70956039 512.80657005 C224.5423291 512.80716524 223.3750978 512.80776043 222.17249586 512.80837366 C219.80127145 512.80958541 217.43004703 512.81079954 215.05882262 512.81201603 C192.82095872 512.8228927 170.58310998 512.82072846 148.34524523 512.81463119 C128.00233161 512.80946175 107.65946586 512.82071796 87.31656171 512.83972941 C66.42684639 512.85910218 45.53715372 512.8673648 24.64742935 512.86360615 C12.92008951 512.86169328 1.19279043 512.8641901 -10.53454208 512.87832069 C-20.51796427 512.89022828 -30.50132062 512.89164632 -40.4847437 512.87953053 C-45.57760109 512.87363755 -50.67033801 512.87255407 -55.76318741 512.88453293 C-60.42776806 512.8953769 -65.09212743 512.89230599 -69.75669767 512.87827124 C-71.44168577 512.87562024 -73.12669113 512.87800352 -74.8116623 512.88600711 C-90.33073383 512.95458999 -104.02079659 510.12063718 -115.87890625 499.2578125 C-127.83708964 486.29110762 -130.80674697 473.53022675 -130.76742554 456.34429932 C-130.771165 454.79502 -130.7757677 453.24574257 -130.78115618 451.69646811 C-130.79336503 447.45069677 -130.79312821 443.20500434 -130.79076743 438.95921946 C-130.79035873 434.37557167 -130.80140349 429.79194902 -130.81088257 425.20831299 C-130.8274819 416.2323788 -130.83299163 407.25647087 -130.83410732 398.28052261 C-130.8350583 390.98294786 -130.83917105 383.68538177 -130.84550858 376.38780975 C-130.863118 355.68894782 -130.8723479 334.99010662 -130.87084763 314.29123715 C-130.87072776 312.6180855 -130.87072776 312.6180855 -130.87060547 310.91113281 C-130.87052371 309.7943334 -130.87044195 308.67753398 -130.87035771 307.52689216 C-130.86954487 289.42919769 -130.8886827 271.33158646 -130.9168822 253.23391607 C-130.94562181 234.64263491 -130.9594219 216.05139434 -130.95769465 197.4600904 C-130.95703113 187.02599303 -130.96250699 176.59198292 -130.98405075 166.15790558 C-131.00227669 157.27392147 -131.00659825 148.39006418 -130.9930319 139.50606945 C-130.98650944 134.97594234 -130.98635895 130.44605845 -131.0037384 125.91595459 C-131.01950611 121.76314826 -131.01656802 117.61077727 -130.99917014 113.45798132 C-130.99610836 111.96137962 -130.99970146 110.46474512 -131.01089029 108.96818212 C-131.11989263 93.34498929 -127.0416802 80.36981872 -116.25 68.75 C-103.7957766 57.23467593 -89.63137359 53.83264188 -73.0078125 54.109375 C-71.69585907 54.11503479 -70.38390564 54.12069458 -69.03219604 54.12652588 C-65.59612769 54.1415742 -62.1607693 54.18066622 -58.72497559 54.2253418 C-55.19825843 54.266753 -51.67142305 54.28463321 -48.14453125 54.3046875 C-41.26273485 54.34718896 -34.38140179 54.41517621 -27.5 54.5 C-27.51571045 53.58299316 -27.5314209 52.66598633 -27.54760742 51.72119141 C-27.59916391 48.27321559 -27.63655554 44.8256577 -27.66479492 41.37744141 C-27.67975184 39.89365111 -27.70012495 38.40990401 -27.72631836 36.92626953 C-28.09468462 15.5032436 -28.09468462 15.5032436 -21.3125 8.125 C-20.78269531 7.51914063 -20.25289063 6.91328125 -19.70703125 6.2890625 C-13.52136564 1.27484153 -7.86487072 -0.15149029 0 0 Z M-72.5 178.5 C-72.5 269.58 -72.5 360.66 -72.5 454.5 C55.54 454.5 183.58 454.5 315.5 454.5 C315.5 363.42 315.5 272.34 315.5 178.5 C187.46 178.5 59.42 178.5 -72.5 178.5 Z " fill="#FFAB3F" transform="translate(134.5,-0.5)"/>
<path d="M0 0 C0.81082031 0.04382813 1.62164062 0.08765625 2.45703125 0.1328125 C7.40441987 1.47759625 10.83857883 3.89351904 13.69262695 8.0859375 C15.20290797 10.78846344 16.58234392 13.52901126 17.9375 16.3125 C18.7104541 17.81731934 18.7104541 17.81731934 19.49902344 19.35253906 C22.1507714 24.55373241 24.60443531 29.78405783 26.84375 35.17578125 C27.49972168 36.67443726 27.49972168 36.67443726 28.16894531 38.20336914 C28.99180497 40.09851184 29.76558799 42.01601871 30.47949219 43.95483398 C31.77134438 46.87345296 32.83444377 48.70375086 35.1875 50.875 C39.73556044 52.49406145 44.1893058 53.13015907 48.97497559 53.63671875 C51.1421834 53.87011956 53.29317187 54.15959404 55.45019531 54.47265625 C58.27671541 54.88252567 61.1038938 55.28450997 63.93359375 55.671875 C64.63339355 55.76791016 65.33319336 55.86394531 66.05419922 55.96289062 C67.4900047 56.15612789 68.92656145 56.34385434 70.36376953 56.52636719 C87.8527821 58.76804408 87.8527821 58.76804408 93.57983398 65.51538086 C96.44104135 69.51173772 96.62886975 73.54986124 96.62109375 78.34765625 C95.32999108 85.8732727 90.66459497 89.22558511 84.9921875 93.640625 C66.64666453 107.59777704 66.64666453 107.59777704 57.22998047 127.41894531 C57.20020007 137.61001987 60.11061139 147.45926372 63.21070862 157.08583069 C65.68745888 164.86891672 67.12270023 172.78957729 63.5 180.4375 C59.45448648 184.70168992 56.04214795 187.63651678 50.1875 188.875 C43.84797635 188.80059606 38.92505812 187.22772293 33.40625 184.234375 C32.35866516 183.68828583 32.35866516 183.68828583 31.28991699 183.13116455 C29.08173807 181.97586558 26.88478763 180.80085628 24.6875 179.625 C23.21552921 178.85155864 21.742877 178.07941269 20.26953125 177.30859375 C18.83563721 176.5552588 17.40203799 175.80136239 15.96875 175.046875 C15.27700684 174.68275513 14.58526367 174.31863525 13.87255859 173.94348145 C9.51591522 171.63148642 5.27784734 169.19029262 1.16210938 166.46582031 C-3.58614322 165.04510181 -8.79586158 168.76874242 -12.91796875 170.921875 C-14.06716797 171.52 -15.21636719 172.118125 -16.40039062 172.734375 C-17.60026858 173.3645678 -18.80013834 173.99477619 -20 174.625 C-21.16853516 175.2334375 -22.33707031 175.841875 -23.54101562 176.46875 C-29.89659842 179.78655563 -36.2026854 183.16739187 -42.43408203 186.71362305 C-47.60768627 189.23988412 -52.51542244 189.52660574 -58 187.875 C-62.95991549 185.74223634 -66.42421413 181.65157175 -68.8125 176.875 C-69.84432418 168.78257434 -68.51468925 162.29615519 -66.015625 154.68359375 C-60.15078162 136.90955766 -60.15078162 136.90955766 -63.19085693 119.1574707 C-70.66346989 108.02940165 -81.45145259 99.08345998 -91.91899109 90.85772705 C-93.03308098 89.97815338 -93.03308098 89.97815338 -94.16967773 89.08081055 C-94.82588608 88.57905807 -95.48209442 88.0773056 -96.15818787 87.56034851 C-99.32863412 84.33042185 -100.12886517 80.47323301 -100.25 76.0625 C-100.1225023 70.71556534 -98.60630765 66.69382177 -94.8125 62.875 C-89.09231525 59.01070162 -83.98779056 57.89123517 -77.20703125 56.953125 C-75.70459114 56.72855621 -75.70459114 56.72855621 -74.17179871 56.49945068 C-70.99134744 56.02779047 -67.80836901 55.57649728 -64.625 55.125 C-62.4744231 54.80724777 -60.32402986 54.48824985 -58.17382812 54.16796875 C-54.24296007 53.58952146 -50.31209359 53.01144859 -46.37817383 52.45410156 C-45.59098465 52.34181213 -44.80379547 52.22952271 -43.99275208 52.11383057 C-41.8125 51.875 -41.8125 51.875 -37.8125 51.875 C-37.55502235 51.0421347 -37.55502235 51.0421347 -37.29234314 50.19244385 C-35.56803321 44.79762402 -33.4900071 39.78656254 -30.94140625 34.734375 C-30.57780502 34.00430237 -30.2142038 33.27422974 -29.83958435 32.52203369 C-29.07690965 30.99466023 -28.31125823 29.46876975 -27.54272461 27.94433594 C-26.37295581 25.62093983 -25.21621419 23.29137407 -24.06054688 20.9609375 C-23.31326962 19.46836443 -22.56524837 17.97616357 -21.81640625 16.484375 C-21.47460831 15.79470642 -21.13281036 15.10503784 -20.78065491 14.39447021 C-17.81877921 8.55549991 -14.83740227 3.88745114 -8.8125 0.875 C-5.76588305 -0.08708956 -3.18183738 -0.23049531 0 0 Z " fill="#FFAB3F" transform="translate(257.8125,208.125)"/>
</svg>
