<?xml version="1.0" encoding="UTF-8"?>
<svg version="1.1" xmlns="http://www.w3.org/2000/svg" width="512" height="512">
<path d="M0 0 C0.83004555 -0.00199105 1.6600911 -0.0039821 2.51528955 -0.00603348 C3.42190198 -0.00312064 4.32851441 -0.0002078 5.26259995 0.00279331 C6.229736 0.00193889 7.19687206 0.00108446 8.19331527 0.00020415 C11.44231996 -0.00144633 14.69127332 0.0040637 17.94027328 0.00952244 C20.26595687 0.00980443 22.59164054 0.00964634 24.91732407 0.00907993 C31.2392074 0.00879242 37.56107185 0.01468171 43.88295078 0.02165389 C49.8179103 0.02726305 55.75286908 0.0282765 61.6878309 0.02930576 C73.44320589 0.0314944 85.19857394 0.03814941 96.95394516 0.04760838 C108.37321564 0.05678734 119.79248424 0.06386581 131.21175766 0.06811619 C132.26757775 0.06851027 132.26757775 0.06851027 133.34472755 0.06891232 C136.87588581 0.07021736 140.40704409 0.07148107 143.93820238 0.07272422 C173.23284247 0.08309099 202.52747577 0.10077855 231.82210922 0.12304783 C231.82449758 0.68534942 231.82688593 1.247651 231.82934666 1.82699203 C231.88850699 15.5149989 231.96425217 29.2028277 232.05782413 42.89064407 C232.1025739 49.51001045 232.14182006 56.12931461 232.16854477 62.74878025 C232.19453148 69.13552924 232.23490149 75.52203944 232.28529549 81.90864086 C232.30199548 84.34667906 232.31349019 86.7847586 232.31972313 89.22284603 C232.32932988 92.63474094 232.35734929 96.04602056 232.38973618 99.45776463 C232.38758354 100.97367191 232.38758354 100.97367191 232.38538742 102.52020359 C232.47055305 109.31492973 232.47055305 109.31492973 235.82210922 115.12304783 C240.40785047 118.50201506 244.85157302 119.23479901 250.44755173 119.28126621 C251.34632538 119.29105503 252.24509903 119.30084385 253.17110825 119.3109293 C254.14431015 119.31668476 255.11751205 119.32244022 256.12020493 119.32837009 C257.67211784 119.34321949 257.67211784 119.34321949 259.25538254 119.35836887 C262.6695287 119.38991487 266.08368877 119.41471409 269.49789047 119.43945408 C271.86729414 119.46002956 274.23669419 119.48102619 276.60609055 119.5024271 C282.83836557 119.55758639 289.07067339 119.60702279 295.30300522 119.65527439 C301.66422057 119.70553424 308.02538838 119.76119691 314.38656235 119.8164072 C326.86503735 119.92391366 339.34355365 120.02537534 351.82210922 120.12304783 C352.05466327 130.36328308 352.23191798 140.60288199 352.34023094 150.8452282 C352.39223982 155.60228187 352.46267705 160.35751843 352.57650375 165.11352634 C352.68583255 169.71080923 352.74508776 174.30635431 352.77088165 178.90483761 C352.78924145 180.65161767 352.82509637 182.39831138 352.87940979 184.14434338 C353.14735252 193.12189719 353.27731171 199.57101455 347.03451157 206.45190525 C345.31026444 208.02358015 343.57313985 209.58126903 341.82210922 211.12304783 C340.33106976 212.86643193 338.86782341 214.6343932 337.44710922 216.43554783 C333.9784079 220.73158957 330.42789169 224.94244689 326.82210922 229.12304783 C323.2859172 233.22527404 319.79347255 237.35107073 316.38460922 241.56054783 C312.24149931 246.66612247 307.93980472 251.62104836 303.61922836 256.57592869 C300.45745085 260.21042634 297.35360716 263.87825626 294.32210922 267.62304783 C290.20317756 272.71113988 285.92063588 277.64308606 281.61898422 282.57617283 C278.45731691 286.21061282 275.3535345 289.87834601 272.32210922 293.62304783 C268.74669397 298.03973726 265.05611574 302.34085168 261.32210922 306.62304783 C256.82807028 311.77761439 252.43324202 316.99152412 248.13851547 322.31445408 C246.40400512 324.41751132 244.64834206 326.4787342 242.84945297 328.52539158 C236.86335948 335.34190426 231.12501038 342.07483418 226.82210922 350.12304783 C226.46229965 350.7699155 226.10249008 351.41678318 225.73177719 352.08325291 C220.59131973 362.20755891 218.47582326 373.47174004 215.82210922 384.43554783 C215.31002601 386.51195116 214.7970109 388.58812491 214.28304672 390.66406345 C211.77323496 400.84308645 209.34321521 411.04129146 206.98226547 421.25586033 C206.7716246 422.15480518 206.56098373 423.05375004 206.34395981 423.97993565 C203.51448986 436.36951046 204.14326056 447.23728049 210.17757797 458.69726658 C211.6116002 460.96171455 213.13684313 463.04004253 214.82210922 465.12304783 C215.5394725 466.04343845 215.5394725 466.04343845 216.27132797 466.98242283 C221.69545195 473.15799975 231.57938216 478.83463663 239.82210922 480.12304783 C242.50456948 480.29638477 245.13832573 480.39966837 247.82210922 480.43554783 C248.86044907 480.47905369 248.86044907 480.47905369 249.91976547 480.52343845 C263.13935068 480.67938637 275.98373147 473.1656766 287.82210922 467.93554783 C289.57290342 467.16529872 291.32379913 466.39528031 293.07479477 465.62548923 C296.47940387 464.12759721 299.88244055 462.62620617 303.28451157 461.12255955 C307.00394426 459.48033896 310.73243793 457.86035879 314.46664047 456.25195408 C327.64776093 450.53713717 341.60613207 443.44701356 349.82210922 431.12304783 C350.48210922 431.12304783 351.14210922 431.12304783 351.82210922 431.12304783 C351.87216442 436.15436506 351.90813326 441.1855321 351.9319725 446.21704197 C351.94192796 447.92279688 351.95549721 449.62853519 351.97298813 451.33422947 C352.16333701 470.39711039 351.11175111 486.43563693 337.24398422 500.93164158 C326.98389992 510.21536302 316.15981007 512.57681593 302.67885971 512.51745701 C301.37360549 512.52354811 300.06835126 512.52963922 298.72354388 512.5359149 C295.12040717 512.55224734 291.51749022 512.55001026 287.91432953 512.54453993 C284.02051515 512.54186139 280.12675826 512.55641702 276.23296738 512.56863499 C268.61172883 512.58965718 260.99056642 512.59423166 253.3693023 512.5924471 C247.17158304 512.59113774 240.97388745 512.59495249 234.77617264 512.60237217 C232.98860892 512.60447145 231.2010452 512.60656905 229.41348147 512.60866499 C228.5236582 512.60970852 227.63383492 512.61075204 226.7170473 512.61182719 C209.89944626 512.63071696 193.08188886 512.62968338 176.2642816 512.62285787 C160.89616761 512.61728457 145.52822044 512.63810097 130.16014543 512.67121834 C114.36334003 512.70499415 98.56661446 512.72011874 82.76977229 512.71550131 C73.90785581 512.71326039 65.04609346 512.71844425 56.18420792 512.7433939 C48.63862078 512.76445746 41.09327227 512.76794918 33.54767516 512.74909431 C29.70188625 512.73996707 25.85654165 512.7386999 22.01078796 512.75944996 C17.83128074 512.78175027 13.65281043 512.76486792 9.4732933 512.74450779 C8.27219587 512.75702564 7.07109843 512.76954349 5.8336041 512.78244066 C-7.70539341 512.64162159 -18.13059731 507.73789329 -27.84976578 498.54101658 C-35.40449771 490.5384526 -39.33360106 480.61082067 -39.31490517 469.76429176 C-39.31755699 469.01730997 -39.32020882 468.27032818 -39.32294101 467.50071058 C-39.33063466 464.98362082 -39.33119321 462.46657984 -39.33179092 459.9494791 C-39.33580551 458.13212917 -39.34024373 456.31478013 -39.34507048 454.49743217 C-39.35704242 449.49207257 -39.36268588 444.48672261 -39.36725163 439.48135149 C-39.37320544 434.08711497 -39.38481592 428.69288998 -39.39554214 423.29866123 C-39.4200723 410.26493086 -39.43469476 397.23119667 -39.44760221 384.19745031 C-39.45131387 380.51623862 -39.45528713 376.8350273 -39.45935488 373.15381598 C-39.48459251 350.29559756 -39.50664638 327.43737853 -39.51908302 304.57914925 C-39.52201274 299.28364211 -39.5249744 293.988135 -39.52798843 288.69262791 C-39.52910751 286.71835838 -39.52910751 286.71835838 -39.53024919 284.70420461 C-39.54290069 263.38659171 -39.57612052 242.06907917 -39.61779027 220.75150181 C-39.66021878 198.86636168 -39.68377918 176.98126425 -39.68900359 155.0960831 C-39.69241679 142.80795692 -39.7041613 130.51996112 -39.73710632 118.23187542 C-39.7651206 107.76569785 -39.77610007 97.29967738 -39.76491086 86.83346523 C-39.7597277 81.49512392 -39.76258909 76.15711152 -39.7873764 70.81881809 C-39.80990417 65.92621125 -39.80910144 61.03416893 -39.79017253 56.14155196 C-39.78737748 54.37697576 -39.79294339 52.61236099 -39.80798547 50.84784669 C-39.93420621 35.06943323 -36.70744219 23.19378364 -25.59585953 11.45117283 C-18.90629196 5.13596062 -9.32908831 -0.00495175 0 0 Z M26.00960922 94.56054783 C22.07132059 99.17397166 21.37665042 101.71323195 21.50570297 107.61523533 C21.97252939 111.31526696 23.34774503 113.3811848 25.82210922 116.12304783 C30.92139774 119.91482647 35.84874037 120.24654371 42.05739975 120.26348972 C43.31338974 120.26919987 44.56937973 120.27491001 45.86343002 120.28079319 C47.2477683 120.28203839 48.63210669 120.28316352 50.01644516 120.28418064 C51.48039499 120.28881212 52.94434362 120.29383723 54.40829086 120.29922581 C58.37954636 120.3123203 62.35078497 120.31878903 66.32205868 120.32323647 C68.80582466 120.32617205 71.28958608 120.33027778 73.77334976 120.33474064 C81.55226423 120.348408 89.3311682 120.35807829 97.11009383 120.36194253 C106.07524043 120.3664211 115.04023441 120.38396283 124.00533462 120.41294312 C130.94479995 120.43459307 137.88422244 120.44464858 144.82372117 120.44598365 C148.96386608 120.44702933 153.10386738 120.45288658 157.24397659 120.47080326 C161.14119056 120.48734132 165.03815381 120.48941183 168.93539047 120.48066425 C170.36034697 120.47989693 171.78531728 120.48419619 173.21023941 120.49412251 C184.36671206 120.62099469 184.36671206 120.62099469 194.82210922 117.12304783 C199.41359811 112.41677172 200.17710103 109.05390059 200.10335922 102.66601658 C199.69029678 98.93124365 198.3133659 96.88362955 195.82210922 94.12304783 C190.71713014 90.32703774 185.78880763 89.9988697 179.57336044 89.98933506 C178.31448013 89.98507008 177.05559982 89.98080509 175.75857162 89.97641087 C174.37105939 89.97676035 172.98354717 89.97722186 171.596035 89.97778416 C170.12884053 89.97479064 168.66164685 89.97138766 167.19445419 89.96760654 C163.21506412 89.95878216 159.23569555 89.95642909 155.25629663 89.95579076 C152.76852603 89.95507939 150.28076088 89.95294344 147.79299164 89.95029354 C139.10949736 89.94104545 130.42601842 89.936958 121.74251938 89.93774509 C113.6553804 89.93834582 105.56830813 89.92779365 97.48118603 89.91200143 C90.53156093 89.89891532 83.58195761 89.89356164 76.63232028 89.8942005 C72.48445023 89.89445517 68.33663949 89.89162145 64.18878174 89.88102245 C60.28668814 89.87132339 56.38471035 89.87127466 52.48261261 89.87853909 C51.05359604 89.87958266 49.6245722 89.87723552 48.19556808 89.87117863 C36.26751938 89.42952003 36.26751938 89.42952003 26.00960922 94.56054783 Z M23.82210922 188.12304783 C20.98210319 192.38305688 21.19119486 196.1224673 21.82210922 201.12304783 C24.01554733 205.59116248 26.30916059 208.03168139 30.82210922 210.12304783 C35.65018454 211.45028166 40.50781186 211.26820238 45.4741478 211.26348972 C46.94110969 211.26794641 46.94110969 211.26794641 48.43770719 211.27249312 C51.71786808 211.28117131 54.99799244 211.28268763 58.27816391 211.28418064 C60.6288015 211.28880942 62.97943834 211.29383416 65.33007431 211.29922581 C71.71860825 211.31234563 78.10713169 211.3187939 84.49567699 211.32323647 C88.48702956 211.32616772 92.47837926 211.33027262 96.46973038 211.33474064 C107.52741849 211.34693057 118.58510469 211.35723056 129.64279938 211.36061573 C130.70372993 211.36094508 130.70372993 211.36094508 131.78609343 211.36128108 C132.84951525 211.3616085 132.84951525 211.3616085 133.93442035 211.36194253 C135.37094164 211.36238599 136.80746293 211.36283255 138.24398422 211.3632822 C138.95654347 211.36350363 139.66910271 211.36372506 140.40325466 211.3639532 C151.94610213 211.36790021 163.48888644 211.38535247 175.03170952 211.40864173 C186.89139393 211.43237655 198.75104667 211.44481854 210.61075521 211.44598365 C217.26598242 211.44689919 223.92113688 211.45294117 230.57634354 211.47080326 C236.83736328 211.48728059 243.09822686 211.48944096 249.35926056 211.48066425 C251.6549954 211.47989372 253.95073863 211.48423873 256.24645233 211.49412251 C259.38519915 211.50684148 262.52339283 211.50096511 265.66213608 211.4905405 C266.5663375 211.49859691 267.47053892 211.50665331 268.40214038 211.51495385 C274.23662069 211.46976577 279.51630828 210.67794242 284.82210922 208.12304783 C289.41359811 203.41677172 290.17710103 200.05390059 290.10335922 193.66601658 C289.69029678 189.93124365 288.3133659 187.88362955 285.82210922 185.12304783 C279.76789476 180.62119605 273.38541846 180.97709374 266.1566124 180.98933506 C264.6875338 180.98593673 264.6875338 180.98593673 263.18877685 180.98246974 C259.90394469 180.97613488 256.61915385 180.97695878 253.33431625 180.97778416 C250.98043387 180.97479236 248.62655199 180.97138978 246.27267075 180.96760654 C239.87600399 180.95876478 233.4793506 180.95642836 227.08267832 180.95579076 C222.41723236 180.9552138 217.75178867 180.95206245 213.08634379 180.94895428 C200.54042495 180.9406503 187.99451321 180.93691193 175.44859172 180.93762401 C174.38027244 180.93768395 174.38027244 180.93768395 173.29037094 180.93774509 C172.57728708 180.93778597 171.86420321 180.93782686 171.12951075 180.93786898 C159.57239427 180.93827545 148.01531038 180.92870513 136.45820333 180.91460673 C124.58722865 180.90023987 112.71626985 180.89333671 100.84528625 180.8942005 C94.18231745 180.89453235 87.51937803 180.89159582 80.85641479 180.88102245 C74.59050081 180.87135074 68.32465903 180.87125598 62.05874252 180.87853909 C59.75894567 180.87958605 57.45914434 180.87721542 55.15935516 180.87117863 C52.02000935 180.86347173 48.88091368 180.86809504 45.74157333 180.87580967 C44.83154623 180.87066611 43.92151913 180.86552254 42.98391545 180.86022311 C34.93409453 180.90393648 29.3230559 181.67908172 23.82210922 188.12304783 Z M26.00960922 275.56054783 C22.07132059 280.17397166 21.37665042 282.71323195 21.50570297 288.61523533 C21.97252939 292.31526696 23.34774503 294.3811848 25.82210922 297.12304783 C31.27068502 301.17455291 36.57314946 301.2484627 43.19631577 301.26348972 C43.92927722 301.26646085 44.66223868 301.26943197 45.41741109 301.27249312 C47.86840285 301.28115041 50.31934559 301.28268585 52.77035141 301.28418064 C54.52986378 301.28881092 56.28937514 301.29383586 58.04888535 301.29922581 C62.82590034 301.31233158 67.60290129 301.3187912 72.37993145 301.32323647 C75.3662262 301.32617012 78.35251714 301.33027548 81.33880997 301.33474064 C90.68749624 301.34841074 100.03617376 301.35807979 109.38486934 301.36194253 C120.16682106 301.36642229 130.94864595 301.38396844 141.73055911 301.41294312 C150.07128621 301.43457744 158.41197766 301.44464775 166.75273252 301.44598365 C171.73123762 301.44703041 176.70962341 301.45291094 181.68809891 301.47080326 C186.37324494 301.4873142 191.05818236 301.48942478 195.74334717 301.48066425 C197.45856282 301.4798955 199.17378984 301.48421521 200.88897705 301.49412251 C213.16039426 301.62214165 213.16039426 301.62214165 224.82210922 298.12304783 C229.41359811 293.41677172 230.17710103 290.05390059 230.10335922 283.66601658 C229.69029678 279.93124365 228.3133659 277.88362955 225.82210922 275.12304783 C220.36786982 271.06733135 215.06433224 270.99779271 208.43444443 270.98933506 C207.70007184 270.9870695 206.96569925 270.98480395 206.20907295 270.98246974 C203.7534088 270.97615011 201.29780013 270.97695779 198.84212875 270.97778416 C197.07937168 270.97479141 195.31661527 270.97138861 193.55385971 270.96760654 C188.76871092 270.95877442 183.98358002 270.95642877 179.19842386 270.95579076 C176.2081245 270.95507984 173.21782967 270.95294473 170.22753143 270.95029354 C159.79339687 270.94104294 149.35927509 270.93695832 138.92513657 270.93774509 C129.20205505 270.93834591 119.47902901 270.92779259 109.75596154 270.91200143 C101.40507468 270.89892256 93.05420596 270.89356134 84.70330894 270.8942005 C79.71707259 270.89445538 74.73088556 270.89161002 69.74465942 270.88102245 C65.05462726 270.87133559 60.36469149 270.87126635 55.67465591 270.87853909 C53.95537932 270.87958417 52.23609671 270.87722654 50.51683044 270.87117863 C48.16568781 270.86344495 45.81487695 270.86811248 43.4637413 270.87580967 C42.14930605 270.8752649 40.8348708 270.87472013 39.48060417 270.87415886 C34.11183658 271.2393984 30.11560546 272.00201776 26.00960922 275.56054783 Z M26.00960922 365.56054783 C22.07132059 370.17397166 21.37665042 372.71323195 21.50570297 378.61523533 C21.97252939 382.31526696 23.34774503 384.3811848 25.82210922 387.12304783 C30.54957824 390.63834531 35.14263259 391.2437099 40.91848373 391.26348972 C41.9220491 391.26919987 42.92561447 391.27491001 43.95959091 391.28079319 C45.59455017 391.28246998 45.59455017 391.28246998 47.26253891 391.28418064 C48.41924088 391.28914555 49.57594284 391.29411045 50.76769638 391.29922581 C54.59313172 391.31382683 58.41852559 391.32064609 62.24398422 391.32617283 C64.23281397 391.3304716 66.22164372 391.3347709 68.2104733 391.33914733 C73.75208788 391.35094729 79.29369246 391.35849171 84.83531833 391.36194253 C91.98366553 391.36641932 99.13182114 391.38395437 106.28011012 391.41294312 C111.81831394 391.43461665 117.35646408 391.44464984 122.89470983 391.44598365 C126.19651003 391.44702771 129.49808971 391.45431453 132.79985428 391.47080326 C136.48808324 391.48790703 140.1758486 391.48597255 143.86410141 391.47949314 C145.48691528 391.49331532 145.48691528 391.49331532 147.14251328 391.50741673 C153.41290501 391.47300676 159.13352973 390.96009203 164.82210922 388.12304783 C169.41359811 383.41677172 170.17710103 380.05390059 170.10335922 373.66601658 C169.69029678 369.93124365 168.3133659 367.88362955 165.82210922 365.12304783 C161.08914948 361.60366751 156.49479885 361.00045808 150.71227646 360.98933506 C149.70582077 360.98507008 148.69936508 360.98080509 147.66241074 360.97641087 C146.56929581 360.97686405 145.47618088 360.97731724 144.34994125 360.97778416 C143.1900267 360.97442554 142.03011215 360.97106693 140.83504868 360.96760654 C136.99999547 360.95810624 133.16498596 360.95615392 129.32992172 360.95507908 C127.33741587 360.95267815 125.34491 360.95027548 123.35240448 360.94761866 C117.08823382 360.9394845 110.82407752 360.93703348 104.55990219 360.93774509 C98.10870336 360.93834568 91.65758819 360.92779524 85.20641053 360.91200143 C79.65804691 360.89890441 74.10971058 360.8935621 68.56133163 360.8942005 C65.2518215 360.89445485 61.94240231 360.89071246 58.63290405 360.88102245 C54.93955422 360.87122071 51.24641958 360.87410148 47.55306625 360.88012791 C46.46399979 360.8745084 45.37493332 360.86888889 44.25286484 360.8630991 C34.39326714 360.86699029 34.39326714 360.86699029 26.00960922 365.56054783 Z " fill="#FFAB3F" transform="translate(39.17789077758789,-0.1230478286743164)"/>
<path d="M0 0 C4.14413986 1.70042103 7.24383235 4.64149405 10.5625 7.5625 C11.82335107 8.65855103 13.08507833 9.75359489 14.34765625 10.84765625 C15.27989014 11.65614014 15.27989014 11.65614014 16.23095703 12.48095703 C18.61880319 14.53135433 21.05414785 16.51933221 23.5 18.5 C28.34596789 22.4337857 33.08098528 26.48447759 37.80859375 30.55859375 C42.18633777 34.32326202 46.63593374 37.98874509 51.12109375 41.625 C55.27376482 45.05081276 59.34429579 48.57082028 63.40625 52.10351562 C66.50231647 54.83979178 66.50231647 54.83979178 70 57 C69.43384016 60.88350268 67.66155353 62.75770314 65 65.5625 C61.79348873 69.02109549 58.7096851 72.51529811 55.75 76.1875 C52.09153866 80.70940939 48.32307284 85.11778899 44.5 89.5 C40.76584832 93.78206292 37.07540896 98.08331835 33.5 102.5 C29.92458474 106.91668944 26.23400652 111.21780385 22.5 115.5 C18.0073264 120.65300054 13.61747929 125.86863977 9.31640625 131.18359375 C6.55368196 134.54265651 3.71775647 137.83368754 0.875 141.125 C-3.58522669 146.2928419 -7.89794259 151.54021937 -12 157 C-16.03805866 155.63733356 -18.54368118 153.8590849 -21.625 150.9375 C-25.08420957 147.73339438 -28.58276566 144.65157731 -32.25 141.6875 C-36.5645109 138.19567126 -40.79705528 134.62419165 -45 131 C-50.00805667 126.68474143 -55.0757503 122.45775455 -60.20703125 118.2890625 C-67.90445586 111.98040401 -75.4563412 105.49105525 -83 99 C-78.81381248 93.18585067 -74.27742529 87.76206366 -69.59667969 82.34716797 C-66.51029322 78.77300693 -63.47477954 75.16835291 -60.5 71.5 C-56.11054182 66.09637098 -51.58317191 60.81961545 -47.04296875 55.54296875 C-44.15769425 52.18857372 -41.29320938 48.81708011 -38.4375 45.4375 C-37.98777832 44.90527832 -37.53805664 44.37305664 -37.07470703 43.82470703 C-36.16931558 42.7528666 -35.26404183 41.68092674 -34.35888672 40.60888672 C-32.07453814 37.90427711 -29.78710492 35.20227873 -27.5 32.5 C-26.58331874 31.41667901 -25.66665207 30.33334568 -24.75 29.25 C-16.5 19.5 -8.25 9.75 0 0 Z " fill="#FFAB3F" transform="translate(403,229)"/>
<path d="M0 0 C4.58084179 2.49072386 8.25054798 5.68599086 12.125 9.125 C17.42600965 13.77674868 22.78635685 18.32385141 28.265625 22.765625 C34.13700436 27.56338071 39.88877302 32.50569805 45.66601562 37.41601562 C47.31833546 38.81980792 48.97149331 40.22260596 50.625 41.625 C51.15826904 42.07794434 51.69153809 42.53088867 52.2409668 42.99755859 C56.71579211 46.7870503 61.26860268 50.47162497 65.85546875 54.125 C68 56 68 56 70 59 C68.69797085 60.5298073 67.38263723 62.04829131 66.0625 63.5625 C65.33160156 64.40941406 64.60070312 65.25632812 63.84765625 66.12890625 C54.79963356 75.52835652 43.93687691 79.91173279 32.125 84.9375 C30.35105527 85.70390514 28.57761392 86.4714765 26.8046875 87.24023438 C22.41909464 89.13784594 18.02376134 91.01161719 13.62521362 92.87896729 C10.96671446 94.01421377 8.31605762 95.16638381 5.66625977 96.32177734 C3.96898969 97.0545402 2.27164571 97.7871319 0.57421875 98.51953125 C-0.1974765 98.85983871 -0.96917175 99.20014618 -1.76425171 99.55076599 C-7.49337115 102.00425146 -12.76777307 103.49618444 -19 102 C-23.51365757 99.94833747 -25.82621466 97.29353365 -28.3359375 93.171875 C-30.75222744 85.26918554 -27.79930804 76.79902286 -25.9296875 69.078125 C-25.60739017 67.72833881 -25.28546723 66.37846318 -24.96389771 65.02850342 C-24.28915887 62.20625508 -23.60734008 59.38582992 -22.92089844 56.56640625 C-22.05085878 52.98886795 -21.20250483 49.40658989 -20.36005974 45.8224678 C-19.70110882 43.03320187 -19.02840511 40.24738101 -18.35199356 37.46230316 C-17.88156065 35.51269154 -17.42395766 33.55999803 -16.96676636 31.60723877 C-14.46778215 21.48524067 -11.01453826 11.39434992 -3.625 3.75 C-2.93664062 3.02296875 -2.24828125 2.2959375 -1.5390625 1.546875 C-1.03117187 1.03640625 -0.52328125 0.5259375 0 0 Z " fill="#FFAB3F" transform="translate(301,350)"/>
<path d="M0 0 C10.15363361 1.69227227 16.926127 6.37328348 23.8984375 13.7890625 C25.78799346 15.77695966 27.71860819 17.54604806 29.8125 19.3125 C33.3889884 22.37500205 36.69389493 25.65280616 40 29 C43.24451281 32.28468632 46.4792241 35.50734049 50 38.5 C54.08559334 41.97275434 57.80241343 45.7750249 61.56713867 49.58666992 C64.39792612 52.43902185 67.26365664 55.1899027 70.3125 57.8125 C80.80124478 66.84628432 85.93588587 74.4529529 90 88 C60.3 88 30.6 88 0 88 C0 58.96 0 29.92 0 0 Z " fill="#FFAB3F" transform="translate(300,2)"/>
<path d="M0 0 C9.48918454 7.17400629 16.18384771 16.03090634 18.75 27.8125 C20.2275108 44.57256733 17.37925741 56.56043882 6.75 69.8125 C5.41588848 71.54106634 4.08249588 73.27018791 2.75 75 C1.75180569 76.27225213 0.75253554 77.54366595 -0.25 78.8125 C-3.64743025 77.29383302 -6.26618284 75.30970998 -9.125 72.9375 C-10.09179688 72.13570313 -11.05859375 71.33390625 -12.0546875 70.5078125 C-16.08280942 67.12298391 -20.07017194 63.69060544 -24.05615234 60.25634766 C-27.58128095 57.22421709 -31.13959334 54.2433007 -34.75 51.3125 C-38.97792649 47.8804185 -43.12524849 44.36695542 -47.25 40.8125 C-54.78883459 34.31801059 -62.47428327 28.02198501 -70.25 21.8125 C-68.6035975 13.39082561 -58.94365416 4.68325164 -52.25 -0.3125 C-36.19724123 -10.34547423 -15.88545532 -10.34961483 0 0 Z " fill="#FFAB3F" transform="translate(493.25,186.1875)"/>
</svg>
