<?xml version="1.0" encoding="UTF-8"?>
<svg version="1.1" xmlns="http://www.w3.org/2000/svg" width="512" height="512">
<path d="M0 0 C1.01790619 0.00215515 2.03581238 0.0043103 3.08456421 0.00653076 C17.69363523 0.05620146 32.02575853 0.30709809 46.375 3.3125 C47.34985352 3.51117676 48.32470703 3.70985352 49.32910156 3.91455078 C97.7109774 14.03517194 141.69928269 35.9516877 177.375 70.3125 C178.3640332 71.26068604 178.3640332 71.26068604 179.37304688 72.22802734 C188.86130305 81.37247479 197.6012044 90.66984009 205.375 101.3125 C206.23306152 102.46355017 207.09113451 103.61459177 207.94921875 104.765625 C213.98736829 112.95680614 219.34595521 121.47054105 224.375 130.3125 C224.73948242 130.94430176 225.10396484 131.57610352 225.47949219 132.22705078 C247.08534998 169.97532572 256.85198095 212.74189997 256.6875 255.9375 C256.68534485 256.95540619 256.6831897 257.97331238 256.68096924 259.02206421 C256.63129854 273.63113523 256.38040191 287.96325853 253.375 302.3125 C253.07698486 303.77478027 253.07698486 303.77478027 252.77294922 305.26660156 C240.31286762 364.83232498 208.4226363 421.18616419 159.375 458.3125 C158.83617187 458.72773926 158.29734375 459.14297852 157.7421875 459.57080078 C123.20009196 486.12600483 82.56497559 503.9685179 39.375 510.3125 C38.17037109 510.48982666 36.96574219 510.66715332 35.72460938 510.84985352 C24.06732646 512.448825 12.50313902 512.6709053 0.75 512.625 C-0.70483292 512.62226578 -0.70483292 512.62226578 -2.1890564 512.61947632 C-16.54056055 512.57408309 -30.50442918 512.0687347 -44.625 509.3125 C-45.52202637 509.15152832 -46.41905273 508.99055664 -47.34326172 508.82470703 C-108.97400546 497.67268126 -167.47284615 461.99947817 -204.625 411.3125 C-205.26211914 410.45857666 -205.26211914 410.45857666 -205.91210938 409.58740234 C-212.42768015 400.84658179 -218.26088547 391.80163672 -223.625 382.3125 C-224.0271875 381.60528809 -224.429375 380.89807617 -224.84375 380.16943359 C-237.8691741 357.03404164 -246.61801461 331.86287591 -251.9375 305.875 C-252.08485596 305.15610596 -252.23221191 304.43721191 -252.3840332 303.6965332 C-255.35789088 288.05024391 -255.99800362 272.57681954 -255.9375 256.6875 C-255.93534485 255.66959381 -255.9331897 254.65168762 -255.93096924 253.60293579 C-255.88129854 238.99386477 -255.63040191 224.66174147 -252.625 210.3125 C-252.42632324 209.33764648 -252.22764648 208.36279297 -252.02294922 207.35839844 C-241.90232806 158.9765226 -219.9858123 114.98821731 -185.625 79.3125 C-184.99287598 78.65314453 -184.36075195 77.99378906 -183.70947266 77.31445312 C-174.56502521 67.82619695 -165.26765991 59.0862956 -154.625 51.3125 C-153.47394983 50.45443848 -152.32290823 49.59636549 -151.171875 48.73828125 C-142.98224019 42.70072604 -134.47961724 37.31792698 -125.625 32.3125 C-124.91778809 31.9103125 -124.21057617 31.508125 -123.48193359 31.09375 C-100.34654164 18.0683259 -75.17537591 9.31948539 -49.1875 4 C-48.46860596 3.85264404 -47.74971191 3.70528809 -47.0090332 3.5534668 C-31.36274391 0.57960912 -15.88931954 -0.06050362 0 0 Z M-55.625 98.3125 C-56.41132813 98.98667969 -57.19765625 99.66085938 -58.0078125 100.35546875 C-73.30008332 114.55543451 -82.92275385 135.30843143 -83.90625 156.109375 C-84.51428869 178.05978217 -78.76416807 196.66692304 -65.625 214.3125 C-65.14546875 214.96476563 -64.6659375 215.61703125 -64.171875 216.2890625 C-51.83203836 231.8202362 -31.01424236 242.49357045 -11.625 245.3125 C12.64978707 247.23496128 33.79566701 242.06853175 53.375 227.3125 C54.25478516 226.66087891 54.25478516 226.66087891 55.15234375 225.99609375 C70.36916322 213.88474764 81.15816967 193.65246762 84.09375 174.54296875 C86.26321582 149.62424323 81.22882517 127.19912403 65.14453125 107.59375 C49.9575923 90.23724834 30.4893987 79.14222093 7.24511719 77.12792969 C-16.12450525 75.67970074 -37.86916225 83.05933968 -55.625 98.3125 Z M-86 296.0625 C-86.65516602 296.40829102 -87.31033203 296.75408203 -87.98535156 297.11035156 C-108.70319496 308.31769892 -123.41165845 325.35761006 -130.78125 347.83984375 C-134.6423583 361.20203641 -136.81308145 375.31285388 -131 388.4375 C-116.59071512 414.04248825 -78.72243186 430.04097417 -52.0234375 437.84765625 C-1.86430251 451.772779 49.84467703 444.97129677 95.11328125 419.60986328 C109.69687839 411.24444497 128.99887287 399.67425691 133.90551758 382.45019531 C138.14626746 363.14077985 131.69117232 342.52637233 121.375 326.3125 C118.9115498 322.76354559 116.27453044 319.51272249 113.375 316.3125 C112.63765625 315.48234375 111.9003125 314.6521875 111.140625 313.796875 C96.75985431 298.47618465 76.57583707 288.79232613 55.51986694 288.02191162 C48.31968102 287.86110132 41.11957982 287.86809702 33.91796875 287.87890625 C31.92102391 287.87549451 29.92407888 287.87207256 27.92713624 287.86755317 C21.66093315 287.85358497 15.39486659 287.85500353 9.12866211 287.86645508 C2.71427379 287.8779201 -3.6996956 287.86387044 -10.11402875 287.8370586 C-15.66700186 287.81473635 -21.21984507 287.80830123 -26.77285975 287.81413502 C-30.06922323 287.81746778 -33.36526396 287.81357117 -36.66160011 287.79788399 C-62.16082067 287.6868993 -62.16082067 287.6868993 -86 296.0625 Z " fill="#FFAB3F" transform="translate(255.625,-0.3125)"/>
</svg>
