<?xml version="1.0" encoding="UTF-8"?>
<svg version="1.1" xmlns="http://www.w3.org/2000/svg" width="512" height="512">
<path d="M0 0 C151.8 0 303.6 0 460 0 C460 107.91 460 215.82 460 327 C308.2 327 156.4 327 0 327 C0 219.09 0 111.18 0 0 Z M44.2127533 53.2334137 C42.67744409 56.73582877 42.61201851 59.44193792 42.59594727 63.26538086 C42.58908401 63.97823746 42.58222076 64.69109406 42.57514954 65.42555237 C42.55691086 67.77218785 42.56071467 70.11815288 42.56640625 72.46484375 C42.56184292 74.10242428 42.5565369 75.74000289 42.55052185 77.37757874 C42.54159646 80.80640451 42.54400715 84.23499731 42.55395508 87.66381836 C42.56544248 92.04987158 42.54523446 96.43511942 42.51603794 100.82106686 C42.49765886 104.2020831 42.49797179 107.58290697 42.50367546 110.96396065 C42.50382848 112.58063448 42.49780044 114.19732152 42.48538399 115.81394768 C42.47044315 118.07821497 42.48117178 120.34100244 42.49829102 122.60522461 C42.49845718 123.89142197 42.49862335 125.17761932 42.49879456 126.50279236 C43.17834508 131.24441941 44.94330186 134.45224597 48.80300903 137.35684204 C51.95731633 138.2802495 54.86621895 138.27107415 58.15185547 138.29052734 C58.86456604 138.29724457 59.57727661 138.30396179 60.31158447 138.31088257 C62.66352342 138.32985262 65.01517685 138.33378624 67.3671875 138.3359375 C69.00619625 138.34236621 70.64520386 138.34909463 72.28421021 138.35610962 C75.71896016 138.36807994 79.15360956 138.37179071 82.58837891 138.37060547 C86.98227093 138.37040231 91.37551594 138.39770175 95.76925468 138.43214989 C99.15454042 138.45442529 102.53967061 138.45844282 105.92502213 138.45738602 C107.54449823 138.45974112 109.16397869 138.46855958 110.78338242 138.48405075 C113.05249638 138.50372437 115.3202174 138.49786866 117.58935547 138.48583984 C118.87856903 138.48868988 120.16778259 138.49153992 121.49606323 138.49447632 C125.75051063 137.89408778 127.78372578 136.84179702 131 134 C133.63437223 129.27832923 134.37725573 125.43726509 134.38818359 120.07421875 C134.39344055 119.42119781 134.39869751 118.76817688 134.40411377 118.09536743 C134.41720508 115.95916071 134.40861529 113.82371292 134.3984375 111.6875 C134.40046138 110.18969583 134.40337543 108.69189262 134.40713501 107.1940918 C134.41154362 104.06386886 134.40517485 100.93390376 134.39111328 97.80371094 C134.374022 93.80577568 134.38387109 89.80844475 134.40183067 85.81053162 C134.41270833 82.7202912 134.40920402 79.63019236 134.4014473 76.53994751 C134.39945627 75.06645637 134.40186572 73.59295208 134.40888596 72.11947632 C134.4165667 70.05456845 134.40480597 67.99061839 134.38818359 65.92578125 C134.38460342 64.16874878 134.38460342 64.16874878 134.38095093 62.3762207 C133.76584298 56.92475688 132.4294449 53.26203193 128.27467346 49.59385681 C124.43671808 47.72583809 121.86367831 47.49884118 117.60522461 47.49829102 C116.89061569 47.49288803 116.17600677 47.48748505 115.43974304 47.48191833 C113.09351318 47.46947959 110.74852209 47.48588649 108.40234375 47.50390625 C106.76379838 47.50375116 105.12525264 47.5022606 103.48670959 47.49949646 C100.05957745 47.49811471 96.63286496 47.51063394 93.20581055 47.53344727 C88.81865556 47.56185396 84.43219624 47.55908562 80.04498959 47.54635715 C76.6640074 47.53939459 73.28318533 47.54719543 69.90222359 47.55961418 C68.28474098 47.5641215 66.66724114 47.56447177 65.049757 47.56054878 C62.7879411 47.55763023 60.52707638 47.57417208 58.26538086 47.59594727 C56.33727821 47.60405174 56.33727821 47.60405174 54.370224 47.61231995 C49.62617271 48.15803265 47.18633242 49.51751241 44.2127533 53.2334137 Z M187 52 C183.86028498 56.70957253 183.8732951 60.96462533 183.85473633 66.53100586 C183.84835648 67.83263168 183.84197662 69.13425751 183.83540344 70.47532654 C183.8338747 71.88849856 183.83276077 73.30167109 183.83203125 74.71484375 C183.82881531 76.17306043 183.82545098 77.63127679 183.82194519 79.0894928 C183.81596791 82.14161934 183.81410389 85.19371763 183.81469727 88.24584961 C183.81479891 92.14740083 183.80113831 96.04877016 183.78392506 99.95027828 C183.77278168 102.96066615 183.77077876 105.97101033 183.77130699 108.9814167 C183.77013073 110.41945587 183.76572885 111.85749631 183.75797462 113.29551506 C183.74812623 115.31018586 183.7523295 117.32491034 183.75708008 119.33959961 C183.75565506 120.48367783 183.75423004 121.62775604 183.75276184 122.8065033 C184.25091789 129.24102659 186.15995565 132.7649612 191 137 C193.95739342 138.47869671 196.62400547 138.15185323 199.92480469 138.17700195 C200.63722321 138.18357315 201.34964172 138.19014435 202.08364868 138.19691467 C204.44639183 138.21665896 206.80907133 138.22831384 209.171875 138.23828125 C209.97896156 138.24235678 210.78604813 138.2464323 211.61759186 138.25063133 C215.89089198 138.27149871 220.16415994 138.28579648 224.4375 138.29516602 C228.84710498 138.30622096 233.25620401 138.34060797 237.66563034 138.38033772 C241.05947798 138.40651335 244.45320538 138.41485876 247.84714508 138.41844749 C249.47221537 138.42331247 251.09728033 138.434924 252.72225189 138.45348549 C255.00111142 138.47789415 257.27866633 138.47690929 259.55761719 138.4699707 C260.85286316 138.47583694 262.14810913 138.48170319 263.48260498 138.48774719 C267.63725976 137.911633 269.764773 136.62497034 273 134 C276.13971502 129.29042747 276.1267049 125.03537467 276.14526367 119.46899414 C276.15164352 118.16736832 276.15802338 116.86574249 276.16459656 115.52467346 C276.1661253 114.11150144 276.16723923 112.69832891 276.16796875 111.28515625 C276.17118469 109.82693957 276.17454902 108.36872321 276.17805481 106.9105072 C276.18403209 103.85838066 276.18589611 100.80628237 276.18530273 97.75415039 C276.18520109 93.85259917 276.19886169 89.95122984 276.21607494 86.04972172 C276.22721832 83.03933385 276.22922124 80.02898967 276.22869301 77.0185833 C276.22986927 75.58054413 276.23427115 74.14250369 276.24202538 72.70448494 C276.25187377 70.68981414 276.2476705 68.67508966 276.24291992 66.66040039 C276.24434494 65.51632217 276.24576996 64.37224396 276.24723816 63.1934967 C275.74908211 56.75897341 273.84004435 53.2350388 269 49 C266.04260658 47.52130329 263.37599453 47.84814677 260.07519531 47.82299805 C259.36277679 47.81642685 258.65035828 47.80985565 257.91635132 47.80308533 C255.55360817 47.78334104 253.19092867 47.77168616 250.828125 47.76171875 C250.02103844 47.75764322 249.21395187 47.7535677 248.38240814 47.74936867 C244.10910802 47.72850129 239.83584006 47.71420352 235.5625 47.70483398 C231.15289502 47.69377904 226.74379599 47.65939203 222.33436966 47.61966228 C218.94052202 47.59348665 215.54679462 47.58514124 212.15285492 47.58155251 C210.52778463 47.57668753 208.90271967 47.565076 207.27774811 47.54651451 C204.99888858 47.52210585 202.72133367 47.52309071 200.44238281 47.5300293 C199.14713684 47.52416306 197.85189087 47.51829681 196.51739502 47.51225281 C192.36274024 48.088367 190.235227 49.37502966 187 52 Z M329 52 C326.36562777 56.72167077 325.62274427 60.56273491 325.61181641 65.92578125 C325.60655945 66.57880219 325.60130249 67.23182312 325.59588623 67.90463257 C325.58279492 70.04083929 325.59138471 72.17628708 325.6015625 74.3125 C325.59953862 75.81030417 325.59662457 77.30810738 325.59286499 78.8059082 C325.58845638 81.93613114 325.59482515 85.06609624 325.60888672 88.19628906 C325.625978 92.19422432 325.61612891 96.19155525 325.59816933 100.18946838 C325.58729167 103.2797088 325.59079598 106.36980764 325.5985527 109.46005249 C325.60054373 110.93354363 325.59813428 112.40704792 325.59111404 113.88052368 C325.5834333 115.94543155 325.59519403 118.00938161 325.61181641 120.07421875 C325.61420319 121.24557373 325.61658997 122.41692871 325.61904907 123.6237793 C326.23417507 129.07540304 327.56987276 132.73834525 331.72631836 136.40515137 C335.55591109 138.27082476 338.12900892 138.5070381 342.37890625 138.51757812 C343.09190887 138.5245874 343.8049115 138.53159668 344.53952026 138.53881836 C346.88091747 138.55632884 349.22109193 138.54480157 351.5625 138.53125 C353.19865143 138.53394694 354.8348013 138.53783105 356.47094727 138.54284668 C359.89387324 138.54873228 363.31638064 138.54020944 366.73925781 138.52148438 C371.1174705 138.49869496 375.49470229 138.51182314 379.87287903 138.53577423 C383.24962701 138.55025787 386.62614407 138.54561456 390.00289917 138.53526306 C391.61677162 138.53260284 393.23066533 138.53584067 394.84451294 138.54518127 C397.10393465 138.55538981 399.36178826 138.53978856 401.62109375 138.51757812 C402.9042749 138.51439575 404.18745605 138.51121338 405.50952148 138.50793457 C410.24413382 137.8189536 413.45426131 136.05139068 416.35783386 132.19798279 C417.2813787 129.03690726 417.26290597 126.12435175 417.2746582 122.83227539 C417.2823246 121.76080009 417.2823246 121.76080009 417.29014587 120.66767883 C417.30402404 118.31091895 417.3030865 115.95445209 417.30078125 113.59765625 C417.30466914 111.95625195 417.309004 110.31484865 417.31376648 108.67344666 C417.32122484 105.2344944 417.32094019 101.79564481 417.31567383 98.35668945 C417.30987939 93.95383419 417.3268112 89.55139964 417.3500185 85.14861393 C417.36476368 81.75908458 417.36562649 78.36965637 417.36250877 74.98010063 C417.36302158 73.35702112 417.36825178 71.73393589 417.37832069 70.11088753 C417.39068342 67.83935478 417.38389512 65.5686392 417.37231445 63.29711914 C417.37294388 62.00568497 417.3735733 60.71425079 417.3742218 59.38368225 C416.96493326 55.68292951 416.31780874 53.89064406 414 51 C410.00357583 47.8019378 406.76995679 47.61711252 401.73461914 47.59594727 C401.02176254 47.58908401 400.30890594 47.58222076 399.57444763 47.57514954 C397.22781215 47.55691086 394.88184712 47.56071467 392.53515625 47.56640625 C390.89757572 47.56184292 389.25999711 47.5565369 387.62242126 47.55052185 C384.19359549 47.54159646 380.76500269 47.54400715 377.33618164 47.55395508 C372.95012842 47.56544248 368.56488058 47.54523446 364.17893314 47.51603794 C360.7979169 47.49765886 357.41709303 47.49797179 354.03603935 47.50367546 C352.41936552 47.50382848 350.80267848 47.49780044 349.18605232 47.48538399 C346.92178503 47.47044315 344.65899756 47.48117178 342.39477539 47.49829102 C340.46547935 47.49854027 340.46547935 47.49854027 338.49720764 47.49879456 C334.250839 48.10736668 332.21242877 49.16380276 329 52 Z M44.71984863 194.2334137 C42.51373099 197.78222302 42.49273463 200.09992594 42.48242188 204.26538086 C42.4754126 204.97823746 42.46840332 205.69109406 42.46118164 206.42555237 C42.44363571 208.77238397 42.45521239 211.11800075 42.46875 213.46484375 C42.46605378 215.10242442 42.46217028 216.74000353 42.45715332 218.37757874 C42.45126267 221.80648062 42.4598058 225.23496509 42.47851562 228.66381836 C42.5012873 233.04990657 42.48819132 237.43501471 42.46422577 241.82106686 C42.44974043 245.20210595 42.45438653 248.58291444 42.46473694 251.96396065 C42.46739762 253.58062418 42.46415767 255.19730893 42.45481873 256.81394768 C42.44460944 259.0782668 42.46021332 261.34102141 42.48242188 263.60522461 C42.48560425 264.89142197 42.48878662 266.17761932 42.49206543 267.50279236 C43.09190275 271.63276456 44.39161911 273.77717957 47 277 C51.72710664 280.15140442 56.01928344 280.12818682 61.60693359 280.16113281 C62.92535248 280.17074036 64.24377136 280.1803479 65.60214233 280.19024658 C67.03423895 280.19509475 68.46633759 280.19937353 69.8984375 280.203125 C70.62429676 280.20595238 71.35015602 280.20877975 72.09801102 280.21169281 C75.9380657 280.2266485 79.77808315 280.23590121 83.61816406 280.24023438 C87.5712587 280.24571844 91.52400881 280.26975517 95.47699547 280.29820633 C98.52945941 280.31688791 101.58184118 280.3220412 104.63435745 280.32357025 C106.09112052 280.32658408 107.54788258 280.33456946 109.00458908 280.34775543 C119.42982861 280.60635745 119.42982861 280.60635745 129 277 C133.4728469 272.29174011 134.12490974 268.79201729 134.16113281 262.43652344 C134.16609772 261.77433304 134.17106262 261.11214264 134.17617798 260.42988586 C134.19077866 258.23970497 134.19759905 256.04959657 134.203125 253.859375 C134.2088794 252.33343505 134.21463709 250.80749511 134.22039795 249.28155518 C134.23090282 246.08044092 134.23674844 242.87935173 134.24023438 239.67822266 C134.24570962 235.58831262 134.26971878 231.49873709 134.29820633 227.40893173 C134.31688883 224.25523939 134.32204134 221.1016266 134.32357025 217.94788361 C134.32658606 216.44088162 134.33457824 214.93388068 134.34775543 213.42693329 C134.36492972 211.31138674 134.36290833 209.19664384 134.35644531 207.08105469 C134.36009094 205.87987 134.36373657 204.6786853 134.36749268 203.44110107 C133.78089614 197.94837125 132.45668966 194.28338409 128.26893616 190.59385681 C124.45957752 188.73650264 121.92416323 188.49884478 117.69702148 188.49829102 C116.99216614 188.49288803 116.28731079 188.48748505 115.56109619 188.48191833 C113.24732574 188.4694815 110.93481192 188.48588506 108.62109375 188.50390625 C107.00496862 188.50375116 105.38884311 188.50226053 103.77272034 188.49949646 C100.39266432 188.4981148 97.01303384 188.51063244 93.63305664 188.53344727 C89.30643281 188.56185429 84.98051438 188.55908543 80.65383816 188.54635715 C77.31917828 188.5393942 73.98468073 188.54719587 70.65004158 188.55961418 C69.05488775 188.5641211 67.45971645 188.56447213 65.86456108 188.56054878 C63.63387334 188.55762983 61.40414969 188.57417388 59.17358398 188.59594727 C57.90594711 188.60135025 56.63831024 188.60675323 55.33226013 188.61231995 C50.49853013 189.17468322 48.14508137 190.87839007 44.71984863 194.2334137 Z M187 193 C182.97549487 200.20082472 183.57951162 207.91679723 183.63671875 215.97265625 C183.63723839 217.42418924 183.63671669 218.87572295 183.63520813 220.32725525 C183.63529744 223.35735696 183.64564386 226.38719035 183.66381836 229.41723633 C183.68652447 233.28613275 183.68704152 237.15463864 183.68030071 241.02358341 C183.67694749 244.01687545 183.68361588 247.01007969 183.69342995 250.00335503 C183.6972574 251.42939226 183.69844044 252.85543931 183.6968441 254.28148079 C183.69647011 256.27890363 183.71064013 258.27631287 183.7253418 260.27368164 C183.72994919 261.40649063 183.73455658 262.53929962 183.73930359 263.70643616 C184.07723931 267.97581934 184.66941547 272.30445515 187.3671875 275.7421875 C192.6419116 279.70506312 196.07459461 280.12339611 202.58520508 280.16113281 C203.56407936 280.16858017 203.56407936 280.16858017 204.56272888 280.17617798 C206.7150072 280.19074538 208.86721179 280.19759273 211.01953125 280.203125 C212.52162171 280.2088812 214.02371216 280.21463887 215.52580261 280.22039795 C218.67386211 280.23089272 221.82189618 280.23674525 224.9699707 280.24023438 C228.99147301 280.24571395 233.01263587 280.26973668 237.03403187 280.29820633 C240.13711001 280.31688838 243.24010731 280.32204127 246.34323692 280.32357025 C247.82511944 280.32658509 249.30700094 280.33457393 250.7888279 280.34775543 C252.86834702 280.36493242 254.94704882 280.36290798 257.02661133 280.35644531 C258.20701492 280.36009094 259.38741852 280.36373657 260.60359192 280.36749268 C265.73572741 279.81219362 269.65466317 278.34533683 273.375 274.625 C276.16591589 270.11659741 276.12992558 265.69642463 276.16113281 260.48486328 C276.17074036 259.18646515 276.1803479 257.88806702 276.19024658 256.55032349 C276.19509477 255.14032162 276.19937355 253.73031771 276.203125 252.3203125 C276.20595238 251.6054858 276.20877975 250.8906591 276.21169281 250.15417099 C276.22664757 246.37247095 276.23590086 242.5908087 276.24023438 238.80908203 C276.24571829 234.9165192 276.26975495 231.02430627 276.29820633 227.1318531 C276.31688986 224.12571215 276.3220413 221.11965463 276.32357025 218.11346054 C276.32658365 216.67902587 276.33456754 215.24459221 276.34775543 213.810215 C276.60008734 201.79595077 276.60008734 201.79595077 270.9375 191.625 C267.32527309 188.59539033 264.74027281 188.85854118 260.07519531 188.82299805 C259.36277679 188.81642685 258.65035828 188.80985565 257.91635132 188.80308533 C255.55360817 188.78334104 253.19092867 188.77168616 250.828125 188.76171875 C250.02103844 188.75764322 249.21395187 188.7535677 248.38240814 188.74936867 C244.10910802 188.72850129 239.83584006 188.71420352 235.5625 188.70483398 C231.15289502 188.69377904 226.74379599 188.65939203 222.33436966 188.61966228 C218.94052202 188.59348665 215.54679462 188.58514124 212.15285492 188.58155251 C210.52778463 188.57668753 208.90271967 188.565076 207.27774811 188.54651451 C204.99888858 188.52210585 202.72133367 188.52309071 200.44238281 188.5300293 C199.14713684 188.52416306 197.85189087 188.51829681 196.51739502 188.51225281 C192.35636774 189.08925066 190.22587273 190.3496036 187 193 Z M329 193 C326.34075968 197.75657389 325.62263621 201.62922868 325.61181641 207.03344727 C325.60655945 207.69782806 325.60130249 208.36220886 325.59588623 209.04672241 C325.58279367 211.22019688 325.5913842 213.3929257 325.6015625 215.56640625 C325.5995389 217.08902628 325.59662508 218.61164536 325.59286499 220.13426208 C325.58845642 223.3157581 325.59482593 226.49700041 325.60888672 229.6784668 C325.62599259 233.74599897 325.61611963 237.81293781 325.59816933 241.88044834 C325.58730404 245.0212599 325.5907901 248.16193186 325.5985527 251.30274773 C325.60054638 252.80218515 325.59812482 254.30163546 325.59111404 255.80105782 C325.58345223 257.89969365 325.59516745 259.99738162 325.61181641 262.09594727 C325.61420319 263.28728775 325.61658997 264.47862823 325.61904907 265.70606995 C326.19029785 270.64542927 327.84442346 273.9036838 331.4375 277.3125 C335.73966871 280.14563549 339.41227958 280.12856182 344.50927734 280.14526367 C345.47593071 280.15030159 345.47593071 280.15030159 346.46211243 280.15544128 C348.58674054 280.16491883 350.71128957 280.16689281 352.8359375 280.16796875 C354.31800366 280.17118364 355.80006951 280.17454789 357.28213501 280.17805481 C360.38731624 280.18403814 363.49246967 280.18589554 366.59765625 280.18530273 C370.56761624 280.18520118 374.53739711 280.1988502 378.50731468 280.21607494 C381.56831677 280.22721878 384.62927588 280.22922121 387.69029617 280.22869301 C389.15345502 280.22986965 390.61661509 280.23427366 392.07975388 280.24202538 C394.13060636 280.25187328 396.18107431 280.24892856 398.23193359 280.24291992 C399.39679291 280.24434494 400.56165222 280.24576996 401.7618103 280.24723816 C408.22029416 279.75412818 411.74830469 277.85908036 416 273 C417.47533787 270.04932426 417.16817267 267.38480874 417.20874023 264.09106445 C417.21852402 263.38025223 417.2283078 262.66944 417.23838806 261.93708801 C417.26835727 259.57917148 417.28973494 257.2213119 417.30859375 254.86328125 C417.31845149 253.65452363 417.31845149 253.65452363 417.32850838 252.42134666 C417.36111332 248.15339285 417.38555784 243.88546407 417.4050293 239.61743164 C417.42282265 236.08939114 417.45760794 232.56215293 417.50756836 229.03442383 C417.56786182 224.77208123 417.59851776 220.5104809 417.60820198 216.24773216 C417.61674489 214.62622635 417.63553459 213.00473974 417.6649456 211.38347816 C418.17339896 201.34095931 418.17339896 201.34095931 414.14868164 192.51245117 C410.19796782 188.79107573 406.29808241 188.86358446 401.0534668 188.82299805 C399.99925034 188.81314125 399.99925034 188.81314125 398.92373657 188.80308533 C396.59889617 188.78338208 394.27412027 188.77169655 391.94921875 188.76171875 C391.15408182 188.75764322 390.35894489 188.7535677 389.53971291 188.74936867 C385.3312468 188.72852081 381.12281319 188.71421344 376.91430664 188.70483398 C372.57310846 188.69377089 368.23242303 188.6593689 363.89140606 188.61966228 C360.54817263 188.59348775 357.20506127 188.58514144 353.86173439 188.58155251 C352.26178333 188.57668885 350.66183764 188.56508106 349.06198692 188.54651451 C346.81915272 188.52210344 344.57764383 188.52309083 342.3347168 188.5300293 C341.06025192 188.52416306 339.78578705 188.51829681 338.47270203 188.51225281 C334.23385672 189.10760619 332.2061483 190.17091064 329 193 Z " fill="#FFAA40" transform="translate(26,185)"/>
<path d="M0 0 C4.02975192 2.24736165 6.53551324 4.60653973 8 9 C8 29.46 8 49.92 8 71 C95.12 71 182.24 71 272 71 C272 50.54 272 30.08 272 9 C276.0754717 2.20754717 276.0754717 2.20754717 280 0 C284.4337512 -0.73106127 288.84644322 -1.03847402 292.9765625 0.953125 C296.25480936 3.50466689 297.76734854 6.12450905 299 10 C299.24050903 12.91706848 299.24050903 12.91706848 299.22705078 16.16723633 C299.22689972 17.38812454 299.22674866 18.60901276 299.22659302 19.86689758 C299.21627045 21.17539169 299.20594788 22.4838858 299.1953125 23.83203125 C299.19157922 25.19251802 299.18873373 26.5530075 299.18673706 27.91349792 C299.17912538 31.48261017 299.15949834 35.05155791 299.1373291 38.62060547 C299.11681735 42.26722997 299.10772398 45.91388123 299.09765625 49.56054688 C299.07624991 56.70709827 299.04214397 63.85353836 299 71 C300.31211708 70.99666908 300.31211708 70.99666908 301.65074158 70.99327087 C309.87675346 70.97327022 318.10275723 70.95802702 326.3287878 70.94818783 C330.55831371 70.94295944 334.7878196 70.9358626 339.01733398 70.92456055 C343.09568543 70.91373009 347.17401757 70.90772283 351.25238228 70.90512276 C352.81177639 70.90326879 354.3711694 70.89964873 355.93055534 70.89426994 C358.10729162 70.88705738 360.28394714 70.88600915 362.46069336 70.88647461 C364.32267616 70.88314369 364.32267616 70.88314369 366.22227478 70.87974548 C369 71 369 71 370 72 C370 101.04 370 130.08 370 160 C218.2 160 66.4 160 -90 160 C-90 130.96 -90 101.92 -90 72 C-87.12255732 70.56127866 -84.65434078 70.88062847 -81.43896484 70.88647461 C-80.76567642 70.88632858 -80.092388 70.88618256 -79.3986969 70.8860321 C-77.16941119 70.88672973 -74.94020865 70.89451511 -72.7109375 70.90234375 C-71.16679937 70.90420846 -69.62266066 70.90563211 -68.07852173 70.90663147 C-64.01129528 70.91045246 -59.94410445 70.92027918 -55.87689209 70.93133545 C-51.7278288 70.94155856 -47.57875975 70.94613102 -43.4296875 70.95117188 C-35.28644197 70.96190181 -27.14322542 70.97897323 -19 71 C-19.00999275 69.87366653 -19.00999275 69.87366653 -19.02018738 68.72457886 C-19.08040568 61.63329619 -19.1260287 54.54210274 -19.15543652 47.45063591 C-19.17106391 43.8051954 -19.19224805 40.15996693 -19.22631836 36.51464844 C-19.25901717 32.99386651 -19.27687501 29.47328799 -19.28463173 25.95236588 C-19.29283732 23.96157365 -19.31623998 21.97086275 -19.33988953 19.98019409 C-19.34011612 18.75938141 -19.34034271 17.53856873 -19.34057617 16.28076172 C-19.35056892 14.67525955 -19.35056892 14.67525955 -19.36076355 13.037323 C-18.8132191 8.42746328 -16.96283803 5.14337016 -14 1.625 C-9.39374887 -0.8700527 -5.11290975 -0.98606117 0 0 Z M-18 72 C-18.06906124 76.87521204 -18.12873492 81.74871108 -18.16479492 86.62402344 C-18.17983465 88.28065763 -18.20027177 89.93725231 -18.22631836 91.59375 C-18.26291515 93.9818703 -18.27977439 96.36946188 -18.29296875 98.7578125 C-18.30845261 99.49242706 -18.32393646 100.22704163 -18.33988953 100.98391724 C-18.34183123 106.98464776 -16.85913221 110.92214636 -12.875 115.375 C-8.85499894 117.64717451 -5.51691436 117.6652183 -1 117 C2.46390257 115.64455986 3.65051931 114.56028946 5.61450195 111.41162109 C7.30598242 107.24655536 7.38380669 103.97709426 7.29296875 99.5390625 C7.28660149 98.3532106 7.28660149 98.3532106 7.28010559 97.1434021 C7.26341301 94.6369106 7.22577983 92.13124539 7.1875 89.625 C7.17244092 87.91798042 7.15875466 86.21094815 7.14648438 84.50390625 C7.11610145 80.33536885 7.05736607 76.1686011 7 72 C-1.25 72 -9.5 72 -18 72 Z M273 72 C272.9309503 77.0176117 272.87127257 82.03356045 272.83520508 87.05126953 C272.82016262 88.75640463 272.79972347 90.46150132 272.77368164 92.16650391 C272.73709716 94.62412012 272.72022827 97.08122269 272.70703125 99.5390625 C272.69154739 100.29555084 272.67606354 101.05203918 272.66011047 101.83145142 C272.65860266 106.62448646 273.39656261 109.82615406 276 114 C279.60323567 117.17932559 283.12677562 117.58087535 287.78125 117.41796875 C291.69034768 116.68157183 293.33178385 114.92852992 296 112 C298.27420701 107.70744636 298.2615336 103.60126067 298.1953125 98.85546875 C298.19106766 97.7007885 298.19106766 97.7007885 298.18673706 96.52278137 C298.17559157 94.07752575 298.15049781 91.63264388 298.125 89.1875 C298.1149629 87.52409385 298.10583833 85.86068193 298.09765625 84.19726562 C298.07737688 80.13125252 298.03821867 76.06604189 298 72 C289.75 72 281.5 72 273 72 Z " fill="#FFAA3F" transform="translate(116,0)"/>
<path d="M0 0 C6.744375 -0.020625 13.48875 -0.04125 20.4375 -0.0625 C22.56888428 -0.071604 24.70026855 -0.08070801 26.89624023 -0.09008789 C28.57535743 -0.093007 30.25447533 -0.09555557 31.93359375 -0.09765625 C32.81374146 -0.10277222 33.69388916 -0.10788818 34.60070801 -0.11315918 C36.73413879 -0.11346896 38.86748314 -0.06244067 41 0 C42.89623202 1.89623202 42.12897626 4.66370359 42.13894653 7.1862793 C42.1369223 8.05293213 42.13489807 8.91958496 42.1328125 9.8125 C42.13376923 10.69655518 42.13472595 11.58061035 42.13571167 12.49145508 C42.13639351 14.36442129 42.13453893 16.23738986 42.13037109 18.11035156 C42.12502289 20.98768388 42.13031593 23.86486008 42.13671875 26.7421875 C42.13605797 28.55729201 42.13477681 30.37239643 42.1328125 32.1875 C42.13483673 33.05415283 42.13686096 33.92080566 42.13894653 34.8137207 C42.11495009 40.88504991 42.11495009 40.88504991 41 42 C37.97043757 42.08870641 34.9631329 42.11526582 31.93359375 42.09765625 C31.1286145 42.09664917 30.32363525 42.09564209 29.4942627 42.09460449 C26.47532739 42.08935614 23.45641233 42.075395 20.4375 42.0625 C10.3209375 42.0315625 10.3209375 42.0315625 0 42 C0 28.14 0 14.28 0 0 Z " fill="#FFAC3F" transform="translate(377,257)"/>
<path d="M0 0 C1.29997925 0.00303635 1.29997925 0.00303635 2.6262207 0.00613403 C3.51027588 0.00517731 4.39433105 0.00422058 5.30517578 0.00323486 C7.178142 0.00255302 9.05111056 0.0044076 10.92407227 0.00857544 C13.80140458 0.01392364 16.67858078 0.0086306 19.5559082 0.00222778 C21.37101272 0.00288856 23.18611713 0.00416972 25.0012207 0.00613403 C25.86787354 0.0041098 26.73452637 0.00208557 27.62744141 0 C33.69877061 0.02399644 33.69877061 0.02399644 34.8137207 1.13894653 C34.90242712 4.16850896 34.92898652 7.17581363 34.91137695 10.20535278 C34.91036987 11.01033203 34.90936279 11.81531128 34.9083252 12.64468384 C34.90307685 15.66361914 34.8891157 18.68253421 34.8762207 21.70144653 C34.8555957 28.44582153 34.8349707 35.19019653 34.8137207 42.13894653 C20.9537207 42.13894653 7.0937207 42.13894653 -7.1862793 42.13894653 C-7.2069043 35.39457153 -7.2275293 28.65019653 -7.2487793 21.70144653 C-7.2578833 19.57006226 -7.2669873 17.43867798 -7.27636719 15.2427063 C-7.27928629 13.5635891 -7.28183486 11.8844712 -7.28393555 10.20535278 C-7.28905151 9.32520508 -7.29416748 8.44505737 -7.29943848 7.53823853 C-7.29974825 5.40480774 -7.24871997 3.27146339 -7.1862793 1.13894653 C-5.29004728 -0.75728549 -2.5225757 0.00997028 0 0 Z " fill="#FFAB40" transform="translate(242.186279296875,256.8610534667969)"/>
<path d="M0 0 C1.7297444 0.00025116 3.45949379 0.00581496 5.18920898 0.01586914 C5.99418823 0.01687622 6.79916748 0.0178833 7.62854004 0.0189209 C10.64747534 0.02416925 13.66639041 0.0381304 16.68530273 0.05102539 C23.42967773 0.07165039 30.17405273 0.09227539 37.12280273 0.11352539 C37.12280273 13.97352539 37.12280273 27.83352539 37.12280273 42.11352539 C30.37842773 42.13415039 23.63405273 42.15477539 16.68530273 42.17602539 C14.55391846 42.18512939 12.42253418 42.1942334 10.2265625 42.20361328 C8.5474453 42.20653239 6.8683274 42.20908096 5.18920898 42.21118164 C3.86898743 42.21885559 3.86898743 42.21885559 2.52209473 42.22668457 C0.38866394 42.22699435 -1.7446804 42.17596606 -3.87719727 42.11352539 C-5.77342929 40.21729337 -5.00617352 37.4498218 -5.0161438 34.92724609 C-5.01411957 34.06059326 -5.01209534 33.19394043 -5.01000977 32.30102539 C-5.01096649 31.41697021 -5.01192322 30.53291504 -5.01290894 29.62207031 C-5.01359078 27.7491041 -5.0117362 25.87613553 -5.00756836 24.00317383 C-5.00222016 21.12584152 -5.0075132 18.24866531 -5.01391602 15.37133789 C-5.01325523 13.55623338 -5.01197407 11.74112896 -5.01000977 9.92602539 C-5.012034 9.05937256 -5.01405823 8.19271973 -5.0161438 7.29980469 C-4.98786914 0.14604617 -4.98786914 0.14604617 0 0 Z " fill="#FFAC3F" transform="translate(97.877197265625,256.886474609375)"/>
<path d="M0 0 C13.86 0 27.72 0 42 0 C42 13.53 42 27.06 42 41 C28.14 41 14.28 41 0 41 C0 27.47 0 13.94 0 0 Z " fill="#FFAB40" transform="translate(235,399)"/>
<path d="M0 0 C6.744375 -0.020625 13.48875 -0.04125 20.4375 -0.0625 C22.56888428 -0.071604 24.70026855 -0.08070801 26.89624023 -0.09008789 C28.57535743 -0.093007 30.25447533 -0.09555557 31.93359375 -0.09765625 C32.81374146 -0.10277222 33.69388916 -0.10788818 34.60070801 -0.11315918 C36.73413879 -0.11346896 38.86748314 -0.06244067 41 0 C42.86962718 1.86962718 42.12886303 4.54663561 42.13894653 7.03381348 C42.1369223 7.87859253 42.13489807 8.72337158 42.1328125 9.59375 C42.13376923 10.45560913 42.13472595 11.31746826 42.13571167 12.20544434 C42.1363935 14.03133212 42.13453904 15.85722231 42.13037109 17.68310547 C42.12502286 20.48801078 42.13031599 23.29275595 42.13671875 26.09765625 C42.13605797 27.86718786 42.13477681 29.63671936 42.1328125 31.40625 C42.13483673 32.25102905 42.13686096 33.09580811 42.13894653 33.96618652 C42.11495031 39.88504969 42.11495031 39.88504969 41 41 C37.97043757 41.08870641 34.9631329 41.11526582 31.93359375 41.09765625 C31.1286145 41.09664917 30.32363525 41.09564209 29.4942627 41.09460449 C26.47532739 41.08935614 23.45641233 41.075395 20.4375 41.0625 C10.3209375 41.0315625 10.3209375 41.0315625 0 41 C0 27.47 0 13.94 0 0 Z " fill="#FFAC3E" transform="translate(377,399)"/>
<path d="M0 0 C1.7297444 0.00025116 3.45949379 0.00581496 5.18920898 0.01586914 C5.99418823 0.01687622 6.79916748 0.0178833 7.62854004 0.0189209 C10.64747534 0.02416925 13.66639041 0.0381304 16.68530273 0.05102539 C23.42967773 0.07165039 30.17405273 0.09227539 37.12280273 0.11352539 C37.12280273 13.64352539 37.12280273 27.17352539 37.12280273 41.11352539 C30.37842773 41.13415039 23.63405273 41.15477539 16.68530273 41.17602539 C14.55391846 41.18512939 12.42253418 41.1942334 10.2265625 41.20361328 C8.5474453 41.20653239 6.8683274 41.20908096 5.18920898 41.21118164 C3.86898743 41.21885559 3.86898743 41.21885559 2.52209473 41.22668457 C0.38866394 41.22699435 -1.7446804 41.17596606 -3.87719727 41.11352539 C-5.74682445 39.24389821 -5.0060603 36.56688978 -5.0161438 34.07971191 C-5.01411957 33.23493286 -5.01209534 32.39015381 -5.01000977 31.51977539 C-5.01096649 30.65791626 -5.01192322 29.79605713 -5.01290894 28.90808105 C-5.01359076 27.08219327 -5.01173631 25.25630308 -5.00756836 23.43041992 C-5.00222013 20.62551461 -5.00751326 17.82076944 -5.01391602 15.01586914 C-5.01325523 13.24633753 -5.01197407 11.47680603 -5.01000977 9.70727539 C-5.012034 8.86249634 -5.01405823 8.01771729 -5.0161438 7.14733887 C-4.98775919 0.14604295 -4.98775919 0.14604295 0 0 Z " fill="#FFAC3E" transform="translate(97.877197265625,398.886474609375)"/>
</svg>
